<svg width="512" height="512" viewBox="0 0 512 512" xmlns="http://www.w3.org/2000/svg">
  <rect width="512" height="512" rx="96" fill="#1d5fa8"/>
  <path d="M256 96c-8.8 0-16 7.2-16 16v168.7l-52.7-52.7c-6.2-6.2-16.4-6.2-22.6 0s-6.2 16.4 0 22.6l80 80c6.2 6.2 16.4 6.2 22.6 0l80-80c6.2-6.2 6.2-16.4 0-22.6s-16.4-6.2-22.6 0L272 280.7V112c0-8.8-7.2-16-16-16z" fill="#ffffff"/>
  <path d="M144 352c-8.8 0-16 7.2-16 16v32c0 17.7 14.3 32 32 32h192c17.7 0 32-14.3 32-32v-32c0-8.8-7.2-16-16-16s-16 7.2-16 16v32H160v-32c0-8.8-7.2-16-16-16z" fill="#ffffff"/>
</svg>
